<svg width="237" height="61" viewBox="0 0 237 61" fill="none" xmlns="http://www.w3.org/2000/svg">
<path d="M23.76 50.336C23.76 51.0453 23.7227 51.4187 23.648 51.456C23.5733 51.4933 23.2933 51.2693 22.808 50.784L1.192 29.056C0.968 28.832 0.781333 28.6453 0.632 28.496C0.52 28.3467 0.426667 28.216 0.352 28.104C0.314667 27.9547 0.277333 27.7867 0.24 27.6C0.24 27.4133 0.24 27.1707 0.24 26.872V25.416C0.24 25.1173 0.24 24.8747 0.24 24.688C0.277333 24.5013 0.314667 24.352 0.352 24.24C0.426667 24.0907 0.52 23.9413 0.632 23.792C0.781333 23.6427 0.968 23.456 1.192 23.232L22.584 1.504C23.1813 0.906665 23.5173 0.626665 23.592 0.663998C23.704 0.701331 23.76 1.14933 23.76 2.008V4.136C23.76 4.50933 23.7413 4.808 23.704 5.032C23.704 5.256 23.6667 5.44266 23.592 5.592C23.5547 5.74133 23.4613 5.89066 23.312 6.04C23.2 6.18933 23.0133 6.39467 22.752 6.656L4.384 25.304C3.97333 25.7147 3.74933 25.9947 3.712 26.144C3.712 26.256 3.89867 26.4987 4.272 26.872C5.728 28.328 7.24 29.8587 8.808 31.464C10.376 33.032 11.9627 34.6373 13.568 36.28C15.1733 37.8853 16.76 39.4907 18.328 41.096C19.9333 42.7013 21.464 44.232 22.92 45.688C23.3307 46.136 23.5733 46.4533 23.648 46.64C23.7227 46.8267 23.76 47.256 23.76 47.928V50.336ZM49.128 44.624C49.128 45.1467 48.8667 45.408 48.344 45.408H46.104C45.5813 45.408 45.32 45.1467 45.32 44.624V29.448C45.32 27.656 45.1707 26.144 44.872 24.912C44.5733 23.6427 44.1067 22.6347 43.472 21.888C42.8747 21.104 42.184 20.544 41.4 20.208C40.616 19.872 39.6453 19.704 38.488 19.704C36.4347 19.704 34.7547 20.432 33.448 21.888C32.1413 23.344 31.488 25.36 31.488 27.936V44.624C31.488 45.1467 31.2267 45.408 30.704 45.408H28.464C27.9413 45.408 27.68 45.1467 27.68 44.624V4.976C27.68 4.45333 27.9413 4.192 28.464 4.192H30.704C31.2267 4.192 31.488 4.45333 31.488 4.976V20.264C32.5333 18.8827 33.6533 17.912 34.848 17.352C36.08 16.792 37.424 16.512 38.88 16.512C42.2027 16.512 44.7413 17.576 46.496 19.704C48.2507 21.832 49.128 25.0613 49.128 29.392V44.624ZM67.664 41.936C68.1867 41.936 68.448 42.1973 68.448 42.72V44.624C68.448 45.1467 68.1867 45.408 67.664 45.408H55.064C54.5413 45.408 54.28 45.1467 54.28 44.624V42.72C54.28 42.1973 54.5413 41.936 55.064 41.936H58.368V20.824H54.056C53.5333 20.824 53.272 20.5627 53.272 20.04V18.136C53.272 17.6133 53.5333 17.352 54.056 17.352H60.832C61.3547 17.352 61.616 17.6133 61.616 18.136V23.624C63.8933 18.92 67.1787 16.568 71.472 16.568C73.6747 16.568 75.6533 16.9973 77.408 17.856C77.7813 18.0053 77.9867 18.192 78.024 18.416C78.0613 18.64 78.024 18.8827 77.912 19.144L77.24 21.16C77.128 21.4213 76.9787 21.552 76.792 21.552C76.6427 21.5147 76.4373 21.4213 76.176 21.272C74.5333 20.488 72.7787 20.096 70.912 20.096C67.8507 20.2453 65.424 21.9067 63.632 25.08C62.624 27.0213 62.12 29.56 62.12 32.696V41.936H67.664ZM79.144 48.04C79.144 47.704 79.144 47.4427 79.144 47.256C79.144 47.0693 79.1627 46.9013 79.2 46.752C79.2747 46.6027 79.368 46.4533 79.48 46.304C79.6293 46.1547 79.816 45.968 80.04 45.744C81.496 44.288 83.008 42.7573 84.576 41.152C86.1813 39.5467 87.7867 37.9413 89.392 36.336C90.9973 34.6933 92.584 33.0693 94.152 31.464C95.7573 29.8587 97.288 28.328 98.744 26.872C99.08 26.4987 99.248 26.256 99.248 26.144C99.248 25.9947 99.0427 25.7147 98.632 25.304L80.152 6.6C79.8907 6.33867 79.6853 6.13333 79.536 5.984C79.424 5.83467 79.3307 5.68533 79.256 5.536C79.2187 5.38666 79.1813 5.2 79.144 4.976C79.144 4.752 79.144 4.45333 79.144 4.08V1.896C79.144 1.03733 79.1813 0.589332 79.256 0.551999C79.368 0.514664 79.704 0.794664 80.264 1.392L101.824 23.232C102.048 23.456 102.216 23.6427 102.328 23.792C102.477 23.9413 102.571 24.0907 102.608 24.24C102.683 24.352 102.72 24.5013 102.72 24.688C102.757 24.8747 102.776 25.1173 102.776 25.416V26.872C102.776 27.1707 102.757 27.4133 102.72 27.6C102.72 27.7867 102.683 27.9547 102.608 28.104C102.571 28.216 102.477 28.3467 102.328 28.496C102.216 28.6453 102.048 28.832 101.824 29.056L80.096 50.896C79.6107 51.3813 79.3307 51.6053 79.256 51.568C79.1813 51.5307 79.144 51.1573 79.144 50.448V48.04ZM126.856 45.688C126.483 45.8373 126.016 45.968 125.456 46.08C124.896 46.192 124.261 46.2853 123.552 46.36C122.843 46.4347 122.208 46.472 121.648 46.472C121.088 46.5093 120.472 46.5093 119.8 46.472C117.635 46.3227 115.787 45.8373 114.256 45.016C112.763 44.1947 111.437 43.1307 110.28 41.824C109.16 40.5173 108.301 38.968 107.704 37.176C107.144 35.384 106.864 33.4427 106.864 31.352C106.864 29.1867 107.219 27.1893 107.928 25.36C108.637 23.4933 109.608 21.888 110.84 20.544C112.109 19.2 113.528 18.1733 115.096 17.464C116.701 16.7173 118.605 16.344 120.808 16.344C121.704 16.344 122.693 16.4373 123.776 16.624C124.896 16.7733 125.979 17.0347 127.024 17.408C127.173 17.4453 127.285 17.52 127.36 17.632C127.435 17.7067 127.453 17.912 127.416 18.248L126.912 22.168C126.875 22.4293 126.8 22.616 126.688 22.728C126.576 22.84 126.371 22.8587 126.072 22.784C125.288 22.4853 124.429 22.2613 123.496 22.112C122.563 21.9627 121.629 21.888 120.696 21.888C117.971 21.888 115.992 22.784 114.76 24.576C113.565 26.368 112.968 28.6267 112.968 31.352C112.968 33.9653 113.565 36.1307 114.76 37.848C115.992 39.5653 117.784 40.592 120.136 40.928C122.264 41.1893 124.317 41.0213 126.296 40.424C126.632 40.2747 126.837 40.256 126.912 40.368C127.024 40.48 127.099 40.648 127.136 40.872L127.416 44.792C127.453 45.0533 127.435 45.24 127.36 45.352C127.323 45.5013 127.155 45.6133 126.856 45.688ZM152.392 41.88C151.309 43.448 150.021 44.624 148.528 45.408C147.072 46.2293 145.429 46.64 143.6 46.64C141.733 46.64 140.072 46.248 138.616 45.464C137.197 44.68 135.984 43.5973 134.976 42.216C134.005 40.7973 133.277 39.1733 132.792 37.344C132.307 35.5147 132.064 33.5547 132.064 31.464C132.064 29.3733 132.307 27.4133 132.792 25.584C133.277 23.7547 134.005 22.1493 134.976 20.768C135.984 19.3867 137.197 18.304 138.616 17.52C140.035 16.736 141.696 16.344 143.6 16.344C145.467 16.344 147.109 16.736 148.528 17.52C149.984 18.304 151.197 19.3867 152.168 20.768C153.176 22.1493 153.923 23.7547 154.408 25.584C154.893 27.4133 155.136 29.3733 155.136 31.464C155.136 33.5173 154.893 35.44 154.408 37.232C153.923 39.024 153.251 40.5733 152.392 41.88ZM143.6 21.832C142.629 21.832 141.808 22.112 141.136 22.672C140.464 23.232 139.904 23.9787 139.456 24.912C139.045 25.808 138.709 26.8347 138.448 27.992C138.224 29.1493 138.112 30.3067 138.112 31.464C138.112 32.6587 138.224 33.8347 138.448 34.992C138.709 36.112 139.045 37.1387 139.456 38.072C139.904 39.0053 140.464 39.752 141.136 40.312C141.808 40.872 142.629 41.152 143.6 41.152C144.533 41.152 145.336 40.872 146.008 40.312C146.717 39.752 147.277 39.0053 147.688 38.072C148.136 37.1387 148.472 36.112 148.696 34.992C148.957 33.8347 149.088 32.6587 149.088 31.464C149.088 30.3067 148.957 29.168 148.696 28.048C148.472 26.8907 148.136 25.864 147.688 24.968C147.277 24.0347 146.717 23.288 146.008 22.728C145.336 22.1307 144.533 21.832 143.6 21.832ZM168.128 46.472C166.411 46.472 164.899 46.0987 163.592 45.352C162.323 44.6427 161.221 43.6347 160.288 42.328C159.392 40.984 158.701 39.36 158.216 37.456C157.731 35.5147 157.488 33.4613 157.488 31.296C157.488 29.6533 157.731 27.8427 158.216 25.864C158.739 23.848 159.448 22.1307 160.344 20.712C161.277 19.2933 162.379 18.2107 163.648 17.464C164.955 16.68 166.448 16.288 168.128 16.288C169.36 16.288 170.517 16.5867 171.6 17.184C172.72 17.744 173.691 18.6027 174.512 19.76V4.136C174.512 3.83733 174.549 3.65066 174.624 3.576C174.699 3.50133 174.848 3.464 175.072 3.464H179.888C180.299 3.464 180.504 3.688 180.504 4.136V44.96C180.504 45.52 180.243 45.8 179.72 45.8H175.24C174.755 45.8 174.512 45.52 174.512 44.96V42.776C173.877 43.896 172.963 44.792 171.768 45.464C170.573 46.136 169.36 46.472 168.128 46.472ZM169.416 22C167.624 22 166.243 22.9333 165.272 24.8C164.301 26.6667 163.816 28.832 163.816 31.296C163.816 33.9467 164.32 36.2053 165.328 38.072C166.336 39.9013 167.699 40.816 169.416 40.816C170.125 40.816 170.816 40.5733 171.488 40.088C172.16 39.6027 172.739 38.912 173.224 38.016C173.747 37.12 174.139 36.056 174.4 34.824C174.661 33.5547 174.792 32.3787 174.792 31.296C174.792 28.6453 174.307 26.4427 173.336 24.688C172.403 22.896 171.096 22 169.416 22ZM207.384 33.088C207.384 33.3867 207.309 33.6107 207.16 33.76C207.048 33.872 206.88 33.928 206.656 33.928H191.312C191.349 35.9067 191.853 37.6053 192.824 39.024C193.832 40.4053 195.437 41.096 197.64 41.096C198.984 41.096 200.16 40.9467 201.168 40.648C202.213 40.312 203.277 39.752 204.36 38.968C204.659 38.8187 204.827 38.8373 204.864 39.024C204.939 39.2107 204.976 39.4347 204.976 39.696V43.672C204.976 44.008 204.92 44.2507 204.808 44.4C204.696 44.5867 204.509 44.7733 204.248 44.96C203.277 45.4827 202.288 45.8933 201.28 46.192C200.309 46.4907 199.096 46.64 197.64 46.64C193.384 46.64 190.211 45.2773 188.12 42.552C186.029 39.8267 184.984 36.224 184.984 31.744C184.984 29.84 185.208 27.992 185.656 26.2C186.104 24.3707 186.795 22.728 187.728 21.272C188.699 19.816 189.912 18.6213 191.368 17.688C192.824 16.7547 194.504 16.288 196.408 16.288C198.424 16.288 200.123 16.7173 201.504 17.576C202.923 18.4347 204.061 19.5733 204.92 20.992C205.816 22.3733 206.451 23.96 206.824 25.752C207.235 27.544 207.44 29.4853 207.44 31.576C207.44 31.8373 207.421 32.136 207.384 32.472C207.384 32.7707 207.384 32.976 207.384 33.088ZM196.296 21.664C195.4 21.664 194.597 21.9253 193.888 22.448C193.216 22.9333 192.675 23.6053 192.264 24.464C191.891 25.2853 191.629 26.0507 191.48 26.76C191.368 27.432 191.312 27.9733 191.312 28.384H201.336C201.336 27.9733 201.261 27.432 201.112 26.76C201 26.0507 200.739 25.2853 200.328 24.464C199.955 23.6053 199.413 22.9333 198.704 22.448C197.995 21.9253 197.192 21.664 196.296 21.664ZM220.768 46.472C219.051 46.472 217.539 46.0987 216.232 45.352C214.963 44.6427 213.861 43.6347 212.928 42.328C212.032 40.984 211.341 39.36 210.856 37.456C210.371 35.5147 210.128 33.4613 210.128 31.296C210.128 29.6533 210.371 27.8427 210.856 25.864C211.379 23.848 212.088 22.1307 212.984 20.712C213.917 19.2933 215.019 18.2107 216.288 17.464C217.595 16.68 219.088 16.288 220.768 16.288C222 16.288 223.157 16.5867 224.24 17.184C225.36 17.744 226.331 18.6027 227.152 19.76V4.136C227.152 3.83733 227.189 3.65066 227.264 3.576C227.339 3.50133 227.488 3.464 227.712 3.464H232.528C232.939 3.464 233.144 3.688 233.144 4.136V44.96C233.144 45.52 232.883 45.8 232.36 45.8H227.88C227.395 45.8 227.152 45.52 227.152 44.96V42.776C226.517 43.896 225.603 44.792 224.408 45.464C223.213 46.136 222 46.472 220.768 46.472ZM222.056 22C220.264 22 218.883 22.9333 217.912 24.8C216.941 26.6667 216.456 28.832 216.456 31.296C216.456 33.9467 216.96 36.2053 217.968 38.072C218.976 39.9013 220.339 40.816 222.056 40.816C222.765 40.816 223.456 40.5733 224.128 40.088C224.8 39.6027 225.379 38.912 225.864 38.016C226.387 37.12 226.779 36.056 227.04 34.824C227.301 33.5547 227.432 32.3787 227.432 31.296C227.432 28.6453 226.947 26.4427 225.976 24.688C225.043 22.896 223.736 22 222.056 22Z" fill="white"/>
<path d="M103.28 57.112H236.56V60.696H103.28V57.112Z" fill="white"/>
</svg>
